<svg xmlns="http://www.w3.org/2000/svg"
 width="563" height="409" viewBox="0 0 563.000000 409.000000"
 preserveAspectRatio="xMidYMid meet">
<g transform="translate(0.000000,409.000000) scale(0.100000,-0.100000)"
fill="#1D3F6A" stroke="none">
<path d="M2758 4080 c-15 -5 -63 -36 -105 -71 -143 -115 -372 -258 -576 -359
-295 -147 -590 -238 -880 -274 -67 -8 -128 -21 -142 -30 -13 -8 -46 -53 -74
-98 -70 -116 -174 -245 -299 -372 -186 -189 -357 -320 -543 -415 -113 -59
-129 -74 -129 -127 0 -47 122 -611 138 -640 16 -29 185 -130 397 -236 l200
-100 5 137 5 137 30 24 c44 35 243 135 370 187 214 87 525 176 768 219 118 21
128 25 123 43 -47 178 -45 260 10 440 20 66 38 147 41 180 5 56 2 66 -40 148
-38 74 -44 92 -36 115 5 15 63 89 130 165 87 99 126 137 142 137 13 0 54 -13
92 -30 122 -52 222 -40 356 41 74 44 76 44 155 -8 108 -71 219 -82 341 -33 41
17 83 30 93 30 20 0 42 -22 179 -180 50 -58 94 -116 97 -129 7 -23 -1 -43 -53
-130 -38 -64 -35 -143 12 -291 20 -63 40 -144 44 -180 9 -74 -3 -196 -25 -248
-8 -20 -11 -39 -7 -42 5 -4 82 -21 173 -38 309 -59 629 -159 865 -271 127 -60
232 -122 253 -149 8 -11 12 -57 12 -144 0 -70 3 -128 6 -128 14 0 381 193 482
252 76 46 108 71 118 93 8 17 29 104 49 195 19 91 46 215 60 277 27 120 31
173 15 203 -5 10 -49 39 -96 64 -113 60 -270 164 -364 240 -186 150 -408 401
-510 575 -22 39 -52 78 -65 87 -14 9 -74 22 -146 30 -483 56 -976 269 -1443
622 -114 86 -160 103 -228 82z m-1371 -1730 c39 -69 69 -127 67 -129 -11 -12
-99 58 -134 107 -79 109 -230 448 -230 515 0 19 139 -211 297 -493z m3115 379
c-48 -128 -141 -315 -194 -391 -39 -55 -101 -108 -127 -108 -18 0 22 71 303
539 27 46 52 79 53 74 2 -6 -14 -57 -35 -114z M2750 3219 c-25 -16 -76 -39
-114 -51 -86 -26 -177 -21 -267 16 -34 14 -66 23 -70 21 -4 -3 -53 -57 -110
-121 l-103 -116 18 -26 c83 -128 89 -205 30 -392 -36 -117 -39 -133 -39 -245
0 -116 1 -123 32 -186 40 -81 116 -155 203 -199 35 -18 129 -55 209 -82 80
-27 174 -64 209 -83 l62 -33 63 33 c34 19 136 59 227 90 91 31 189 70 218 87
151 86 234 246 218 419 -3 36 -22 120 -42 185 -58 191 -56 269 7 370 16 24 29
50 29 56 0 6 -39 56 -87 111 -49 56 -95 110 -104 121 -15 18 -17 18 -85 -10
-125 -51 -272 -37 -388 36 -26 17 -52 30 -59 29 -7 0 -32 -14 -57 -30z m280
-275 c166 -82 289 -267 290 -435 1 -247 -185 -454 -438 -491 -197 -29 -387 59
-502 232 -50 75 -73 166 -68 273 3 81 8 101 41 170 127 263 427 374 677 251z
M2710 2831 c-90 -28 -158 -88 -139 -123 16 -30 35 -32 71 -5 48 36 72 46 127
57 142 27 301 -89 301 -219 0 -28 -2 -29 -35 -24 -27 4 -35 2 -35 -9 0 -17 97
-148 109 -148 5 0 34 28 65 61 63 68 69 95 19 92 -30 -3 -31 -1 -42 55 -22
114 -114 220 -220 257 -47 16 -177 19 -221 6z M2453 2574 c-32 -36 -58 -71
-58 -77 0 -7 15 -12 37 -12 36 0 37 -1 43 -45 15 -110 104 -220 211 -259 110
-42 271 -19 346 48 23 21 29 32 24 49 -12 35 -39 35 -99 -1 -89 -54 -181 -56
-277 -7 -68 35 -120 115 -120 185 0 32 2 35 19 25 22 -11 51 -4 51 14 -1 15
-98 146 -110 146 -5 0 -35 -30 -67 -66z M1935 1940 c-284 -49 -492 -103 -725
-187 -121 -43 -291 -121 -357 -162 l-33 -21 0 -148 c0 -145 -1 -149 -25 -172
-49 -46 -62 -145 -26 -206 16 -27 20 -50 19 -104 -2 -41 2 -74 9 -81 8 -8 42
2 130 40 365 156 883 277 1397 326 623 58 1313 -1 1906 -165 135 -37 424 -138
518 -181 89 -41 96 -36 97 64 0 40 6 82 14 96 39 69 32 136 -19 195 l-29 33
-3 154 -3 153 -130 66 c-272 138 -652 249 -1078 315 l-107 17 -52 -46 c-63
-57 -148 -98 -343 -166 -82 -28 -181 -68 -218 -88 l-68 -37 -68 37 c-37 20
-143 64 -237 96 -202 70 -261 99 -324 158 -26 24 -56 44 -66 43 -10 0 -91 -13
-179 -29z m859 -332 c17 -9 8 -20 -80 -109 -103 -103 -141 -129 -193 -129 -30
0 -81 18 -81 29 0 3 40 48 89 98 120 126 186 153 265 111z m215 11 c17 -6 31
-15 31 -21 0 -14 -165 -169 -209 -195 -20 -13 -52 -23 -73 -23 -36 0 -88 17
-88 29 0 12 165 169 204 195 42 28 84 33 135 15z m-447 -17 c15 -15 -169 -214
-219 -237 -37 -18 -106 -16 -125 3 -6 6 18 42 65 98 83 100 99 116 142 139 33
18 118 16 137 -3z m678 2 c23 -9 40 -20 38 -25 -2 -4 -21 -22 -44 -41 -23 -18
-70 -57 -105 -87 -76 -64 -118 -84 -162 -76 -40 8 -71 30 -62 45 16 27 184
165 220 181 49 23 64 23 115 3z m-925 -18 c17 -13 15 -17 -36 -76 -120 -140
-151 -170 -191 -181 -40 -10 -93 -5 -103 11 -3 5 32 56 77 112 59 73 96 109
128 126 50 25 97 28 125 8z m1155 -4 c19 -9 34 -21 32 -27 -2 -5 -49 -47 -105
-92 -117 -95 -160 -113 -221 -92 -22 8 -41 19 -43 26 -5 13 171 163 220 187
42 20 74 20 117 -2z m-1396 -18 c9 -3 16 -10 16 -15 0 -4 -39 -59 -87 -120
-98 -125 -142 -156 -208 -143 -19 3 -38 10 -41 15 -5 10 129 191 167 225 13
12 33 26 44 32 22 12 84 16 109 6z m1620 -8 c19 -8 36 -18 39 -23 7 -11 -196
-167 -236 -182 -16 -6 -40 -11 -54 -11 -27 0 -93 28 -93 39 0 14 177 151 221
171 52 23 78 25 123 6z m-1848 -40 c5 -14 -94 -163 -145 -219 -34 -38 -73 -57
-113 -57 -67 0 -67 11 0 112 67 101 112 151 152 167 38 15 100 13 106 -3z
m2079 0 c19 -8 35 -19 35 -25 0 -17 -204 -161 -244 -172 -46 -13 -96 -5 -126
19 -22 17 -21 18 60 81 145 112 195 130 275 97z m-2298 -40 c10 -10 -163 -252
-196 -273 -34 -23 -94 -30 -118 -15 -9 6 2 33 42 97 71 116 128 182 168 194
30 9 94 8 104 -3z m2499 -7 c44 -21 69 -52 152 -195 23 -38 42 -76 42 -82 0
-18 -80 -15 -118 6 -43 23 -209 271 -190 284 23 14 70 9 114 -13z m-87 -109
c74 -107 75 -126 3 -116 -26 3 -78 10 -116 15 -67 9 -121 35 -121 60 0 11 151
130 166 131 3 0 34 -41 68 -90z m-2659 60 c13 -8 13 -12 1 -32 -8 -13 -36 -61
-63 -108 -57 -98 -90 -137 -135 -156 -37 -16 -89 -18 -98 -4 -6 10 112 214
149 256 20 24 84 53 116 53 8 1 22 -4 30 -9z m2966 -9 c23 -10 53 -34 66 -52
28 -37 138 -233 138 -244 0 -4 -27 -5 -60 -3 -52 4 -65 9 -94 37 -19 19 -49
61 -67 95 -18 33 -47 85 -66 114 -18 29 -31 57 -28 63 10 15 67 10 111 -10z
m-3188 -60 c11 -7 8 -17 -14 -52 -15 -24 -44 -75 -65 -114 l-39 -70 0 39 c0
23 -11 58 -27 88 l-28 49 30 25 c45 37 114 54 143 35z m3433 -21 c22 -12 42
-27 45 -34 3 -7 -6 -30 -20 -50 -13 -20 -27 -55 -31 -77 l-7 -41 -45 83 c-24
46 -51 94 -59 106 -8 12 -14 25 -14 28 0 14 95 3 131 -15z m-3628 -105 c50
-50 41 -137 -18 -183 -41 -32 -90 -29 -127 8 -28 28 -30 35 -26 81 10 99 110
154 171 94z m3821 4 c53 -42 69 -104 41 -159 -30 -58 -103 -69 -150 -22 -53
52 -61 122 -19 171 32 38 87 43 128 10z M2505 1170 c-557 -36 -1161 -164
-1540 -327 -85 -36 -90 -40 -93 -71 -5 -45 24 -138 59 -193 164 -259 673 -462
1364 -545 213 -26 804 -26 1020 -1 221 27 370 54 560 102 353 89 617 217 763
369 73 76 112 152 119 236 l6 58 -39 20 c-22 11 -104 43 -183 71 -385 138
-784 224 -1241 266 -208 19 -612 26 -795 15z m-235 -138 c0 -15 -272 -646
-284 -659 -1 -1 -55 12 -119 29 -109 29 -117 32 -111 52 4 11 36 86 71 166 35
80 85 195 110 255 25 61 51 115 57 122 6 6 67 18 136 26 69 8 128 15 133 16 4
1 7 -3 7 -7z m-464 -139 c-71 -166 -178 -398 -186 -407 -8 -8 -116 29 -125 43
-2 4 34 97 79 207 l84 199 63 17 c35 9 76 16 91 17 l27 1 -33 -77z m-743 -187
c75 -119 282 -249 522 -328 214 -70 514 -129 815 -160 188 -19 717 -16 905 6
415 48 738 135 998 269 127 65 236 153 272 221 11 20 25 36 33 36 47 0 -4
-116 -81 -185 -215 -194 -693 -352 -1242 -411 -219 -23 -706 -23 -930 0 -485
51 -897 168 -1147 329 -118 75 -198 170 -198 234 0 46 19 42 53 -11z"/>
</g>
</svg>
