<?xml version="1.0" standalone="no"?>
<!DOCTYPE svg PUBLIC "-//W3C//DTD SVG 20010904//EN"
 "http://www.w3.org/TR/2001/REC-SVG-20010904/DTD/svg10.dtd">
<svg version="1.0" xmlns="http://www.w3.org/2000/svg"
 width="1048.000000pt" height="1091.000000pt" viewBox="0 0 1048.000000 1091.000000"
 preserveAspectRatio="xMidYMid meet">
<metadata>
Created by potrace 1.16, written by Peter Selinger 2001-2019
</metadata>
<g transform="translate(0.000000,1091.000000) scale(0.100000,-0.100000)"
fill="#ffffff" stroke="none">
<path d="M5155 10664 c-718 -61 -1460 -287 -2099 -640 -505 -279 -1020 -688
-1385 -1099 -533 -601 -885 -1211 -1109 -1920 -144 -454 -214 -841 -243 -1345
-51 -887 136 -1808 533 -2612 329 -669 786 -1237 1413 -1759 364 -303 853
-594 1305 -776 208 -84 248 -99 420 -151 607 -186 1218 -265 1860 -240 811 31
1629 262 2350 664 432 240 898 602 1227 950 298 318 514 596 698 900 140 230
226 406 234 480 15 133 -23 243 -112 327 -56 53 -129 90 -932 477 -657 317
-669 321 -894 322 -197 0 -307 -25 -486 -115 -162 -80 -257 -159 -412 -342
-77 -90 -263 -268 -378 -360 -271 -218 -594 -374 -975 -471 -194 -49 -540 -74
-753 -55 -293 27 -494 75 -760 182 -319 127 -575 296 -821 543 -245 245 -422
516 -559 856 -126 311 -196 758 -168 1075 57 649 293 1165 739 1612 202 202
392 337 677 481 186 94 466 180 705 218 175 28 567 26 748 -4 330 -54 647
-165 886 -309 100 -61 265 -181 361 -263 94 -80 250 -236 250 -249 0 -5 -54
-48 -120 -98 -97 -72 -406 -314 -438 -343 -7 -6 191 -82 448 -171 61 -20 189
-65 285 -99 96 -34 290 -102 430 -150 140 -48 311 -109 379 -134 68 -25 126
-45 127 -43 2 2 -1 41 -6 88 -5 46 -16 147 -24 224 -9 77 -18 158 -21 180 -2
22 -14 121 -25 220 -11 99 -22 198 -25 220 -3 22 -11 105 -19 185 -24 246 -66
594 -74 612 -7 17 -51 -15 -395 -289 l-108 -86 -153 154 c-330 333 -722 584
-1114 714 -340 113 -544 152 -909 175 -312 20 -667 -26 -993 -128 -482 -152
-857 -377 -1227 -735 -463 -450 -749 -995 -857 -1637 -79 -465 -53 -915 79
-1369 94 -323 220 -590 398 -846 124 -179 199 -267 357 -426 298 -300 592
-499 965 -652 819 -337 1720 -306 2514 86 342 169 640 404 956 753 72 79 154
162 184 184 114 84 277 119 423 89 30 -6 188 -75 363 -159 171 -81 362 -173
425 -203 63 -30 204 -98 313 -151 l198 -97 -32 -57 c-465 -822 -1169 -1492
-2006 -1911 -564 -282 -1183 -451 -1832 -501 -685 -52 -1513 79 -2156 343
-220 90 -261 109 -399 180 -444 230 -856 536 -1216 904 -491 501 -847 1078
-1087 1763 -123 351 -189 646 -239 1060 -33 275 -24 906 16 1152 82 500 202
908 385 1313 69 153 178 363 242 465 151 244 192 305 322 470 362 459 735 808
1171 1092 673 439 1378 686 2180 764 234 23 682 23 910 0 784 -79 1555 -358
2194 -794 295 -200 472 -347 716 -591 273 -273 396 -424 630 -773 210 -313
265 -461 242 -656 -25 -218 -185 -439 -398 -549 -101 -53 -175 -73 -296 -82
-54 -4 -100 -10 -103 -13 -4 -3 14 -69 39 -147 25 -77 55 -188 67 -246 l22
-105 32 0 c101 0 330 62 447 121 182 92 377 258 491 420 88 125 165 311 198
482 54 276 -18 597 -197 885 -238 383 -580 813 -855 1077 -574 549 -1156 911
-1954 1212 -255 97 -674 196 -1040 247 -324 46 -813 58 -1150 30z"/>
</g>
</svg>
