<?xml version="1.0" standalone="no"?>
<!DOCTYPE svg PUBLIC "-//W3C//DTD SVG 20010904//EN"
 "http://www.w3.org/TR/2001/REC-SVG-20010904/DTD/svg10.dtd">
<svg version="1.0" xmlns="http://www.w3.org/2000/svg"
 width="751.000000pt" height="768.000000pt" viewBox="0 0 751.000000 768.000000"
 preserveAspectRatio="xMidYMid meet">
<metadata>
Created by potrace 1.16, written by Peter Selinger 2001-2019
</metadata>
<g transform="translate(0.000000,768.000000) scale(0.100000,-0.100000)"
fill="#ffffff" stroke="none">
<path d="M3500 7673 c-19 -1 -87 -8 -150 -14 -858 -81 -1711 -507 -2310 -1154
-455 -490 -762 -1056 -919 -1695 -198 -805 -146 -1622 152 -2385 67 -170 223
-479 319 -630 590 -927 1533 -1569 2563 -1745 313 -53 747 -64 1045 -26 954
123 1842 629 2467 1406 77 96 294 410 306 442 7 21 13 9 39 -85 17 -60 22 -90
14 -92 -6 -2 -33 -10 -60 -17 -49 -13 -49 -13 70 -109 204 -163 303 -239 314
-239 5 0 10 5 10 12 0 6 34 116 75 243 41 128 75 237 75 243 0 6 -17 5 -47 -4
-25 -8 -50 -14 -54 -14 -4 0 -10 53 -13 117 -17 320 -57 547 -137 788 -96 288
-210 485 -379 656 -369 371 -905 480 -1367 277 -228 -99 -466 -303 -633 -541
-158 -226 -320 -370 -535 -477 -224 -111 -383 -146 -629 -137 -220 7 -364 44
-543 137 -147 76 -231 138 -349 255 -201 199 -320 415 -385 701 -32 140 -32
393 -1 541 81 377 283 679 597 890 214 144 450 213 726 213 411 0 751 -162
1035 -494 265 -309 596 -519 935 -592 177 -38 416 -27 582 28 337 109 631 377
747 680 46 121 70 257 70 396 0 331 -119 609 -430 1004 -123 156 -450 489
-595 604 -602 481 -1274 749 -2040 814 -110 9 -482 11 -565 3z m540 -443 c432
-40 825 -152 1204 -346 336 -171 598 -365 872 -646 296 -304 489 -592 541
-808 21 -87 20 -247 -2 -330 -63 -241 -261 -437 -508 -502 -91 -23 -255 -24
-346 -2 -103 26 -231 85 -343 159 -82 54 -145 110 -311 276 -280 281 -406 378
-630 484 -238 112 -415 154 -689 162 -200 6 -320 -4 -468 -38 -531 -122 -977
-485 -1221 -994 -161 -335 -214 -754 -144 -1124 123 -643 599 -1185 1220
-1390 144 -47 231 -66 385 -82 311 -31 657 34 941 177 269 135 488 325 696
604 157 211 304 337 475 408 106 44 179 55 315 49 185 -7 326 -66 459 -190
171 -160 244 -343 231 -584 -9 -178 -55 -293 -218 -538 -127 -190 -242 -329
-423 -511 -187 -186 -341 -312 -552 -451 -399 -262 -833 -427 -1324 -505 -126
-20 -182 -23 -430 -23 -298 0 -409 10 -635 56 -515 105 -1015 344 -1445 693
-171 138 -417 395 -557 581 -681 905 -865 2081 -496 3174 129 380 346 766 611
1081 102 121 339 353 462 451 510 407 1128 654 1765 708 146 12 433 12 565 1z"/>
<path d="M3440 7025 c-492 -52 -955 -216 -1363 -485 -409 -269 -736 -613 -994
-1048 -384 -645 -525 -1454 -387 -2212 58 -322 187 -680 349 -972 371 -670
1007 -1212 1710 -1457 525 -184 1093 -225 1602 -116 552 119 1027 361 1459
746 298 265 627 705 690 924 23 81 23 222 0 300 -62 209 -231 354 -449 386
-110 16 -200 0 -313 -56 -140 -70 -234 -160 -384 -365 -316 -434 -793 -726
-1315 -806 -147 -22 -423 -23 -565 0 -531 83 -990 362 -1322 803 -430 571
-515 1364 -218 2023 254 562 758 990 1333 1130 625 153 1249 13 1742 -391 39
-31 149 -138 245 -236 193 -196 299 -283 423 -343 108 -52 183 -70 287 -70
144 0 248 41 353 140 156 146 198 359 110 565 -74 173 -291 454 -527 683 -446
432 -1015 725 -1603 827 -262 45 -605 57 -863 30z m576 -476 c750 -72 1469
-497 1904 -1126 61 -87 66 -129 21 -174 -23 -23 -38 -29 -72 -29 -49 0 -56 7
-176 170 -145 196 -388 422 -617 574 -119 79 -363 201 -500 251 -216 79 -462
127 -716 140 -213 12 -529 -23 -725 -80 -420 -122 -766 -321 -1071 -618 -392
-380 -648 -882 -729 -1427 -39 -261 -29 -605 25 -868 183 -899 859 -1635 1740
-1893 589 -173 1187 -114 1750 172 372 189 729 509 945 848 81 127 105 151
149 151 47 0 95 -42 102 -90 4 -29 -2 -47 -37 -105 -287 -474 -764 -876 -1291
-1090 -344 -139 -649 -193 -1033 -182 -548 15 -1037 187 -1495 528 -167 124
-425 381 -551 550 -467 627 -633 1397 -473 2187 168 825 759 1552 1545 1901
261 116 496 176 834 215 72 8 371 5 471 -5z"/>
</g>
</svg>
