<svg xmlns="http://www.w3.org/2000/svg"
 width="375" height="419" viewBox="0 0 375.000000 419.000000"
 preserveAspectRatio="xMidYMid meet">
<g transform="translate(0.000000,419.000000) scale(0.100000,-0.100000)"
fill="#1D3F6A" stroke="none">
<path d="M1813 4168 c-23 -13 -75 -46 -115 -74 -137 -96 -282 -154 -433 -175
-150 -20 -304 14 -534 116 -77 34 -86 36 -111 24 -15 -8 -117 -120 -226 -249
-109 -129 -234 -275 -278 -325 -89 -102 -116 -141 -116 -171 0 -11 26 -57 58
-102 74 -102 124 -196 154 -292 19 -62 23 -96 22 -195 -1 -136 -14 -202 -94
-460 -91 -297 -110 -394 -117 -591 -9 -248 27 -426 127 -629 143 -290 391
-502 775 -660 50 -21 203 -76 340 -122 255 -86 387 -142 509 -215 80 -49 120
-52 169 -15 84 64 279 146 566 239 399 129 645 258 835 438 239 227 365 505
383 844 9 191 -25 390 -123 706 -76 242 -96 342 -97 460 -1 171 44 297 168
475 44 63 65 103 65 123 0 34 0 34 -240 313 -97 112 -216 251 -264 309 -124
147 -115 145 -270 76 -190 -84 -256 -100 -401 -100 -188 2 -348 56 -519 175
-91 64 -154 99 -176 99 -9 0 -34 -10 -57 -22z m346 -972 c321 -90 599 -330
721 -624 62 -148 83 -250 83 -417 1 -222 -41 -382 -148 -565 -71 -121 -257
-306 -379 -378 -185 -108 -348 -152 -566 -152 -295 0 -543 99 -753 299 -225
215 -337 475 -337 786 0 313 109 567 335 784 164 157 342 246 585 295 14 2
102 3 195 1 147 -3 183 -7 264 -29z M1715 2866 c-125 -29 -300 -122 -339 -181
-40 -62 -1 -149 67 -149 27 0 48 11 94 48 108 89 200 121 348 119 206 -2 387
-118 481 -309 31 -62 38 -88 42 -154 l5 -80 -36 15 c-65 27 -117 15 -117 -26
0 -9 41 -72 91 -140 50 -68 94 -130 97 -137 7 -18 50 -34 67 -25 7 5 63 64
124 133 92 104 110 130 111 158 0 25 -5 35 -22 41 -20 7 -83 0 -119 -14 -13
-5 -17 6 -22 71 -24 279 -218 519 -497 614 -83 28 -284 37 -375 16z M1204
2398 c-61 -65 -190 -220 -203 -245 -9 -17 -9 -28 0 -44 9 -19 17 -21 57 -16
26 4 59 9 75 13 26 6 27 5 27 -37 0 -79 29 -182 76 -278 131 -265 428 -422
725 -382 156 20 294 80 382 165 47 46 52 102 12 141 -38 39 -84 34 -140 -15
-156 -135 -397 -160 -593 -61 -119 60 -223 182 -262 309 -18 58 -28 162 -15
162 3 0 22 -7 42 -15 45 -19 68 -19 87 1 26 26 19 46 -50 139 -37 50 -80 111
-96 138 -28 44 -54 67 -75 67 -5 0 -27 -19 -49 -42z"/>
</g>
</svg>
